<?xml version="1.0" encoding="iso-8859-1"?>

<!-- Generator: Adobe Illustrator 19.0.0, SVG Export Plug-In . SVG Version: 6.00 Build 0)  -->
<svg version="1.1" id="Capa_1" xmlns="http://www.w3.org/2000/svg" xmlns:xlink="http://www.w3.org/1999/xlink" x="0px" y="0px"
	 viewBox="0 0 512.001 512.001" style="enable-background:new 0 0 512.001 512.001;" xml:space="preserve">
<path style="fill:#56535A;" d="M451.699,485.686H60.301c-21.765,0-41.256-11.254-52.139-30.102
	c-10.883-18.849-10.883-41.355,0-60.205l195.7-338.961c10.882-18.849,30.373-30.102,52.139-30.102s41.256,11.254,52.139,30.102
	l195.7,338.962c10.883,18.849,10.883,41.355,0,60.205C492.955,474.432,473.465,485.686,451.699,485.686z"/>
<path style="fill:#56535A;" d="M503.838,395.379l-195.7-338.962C297.257,37.569,277.765,26.315,256,26.315v459.37h195.7
	c21.765,0,41.256-11.254,52.139-30.102C514.721,436.734,514.721,414.228,503.838,395.379z"/>
<path style="fill:#FFEA84;" d="M256.001,56.312c-10.921,0-20.701,5.646-26.161,15.104L34.139,410.378
	c-5.46,9.458-5.46,20.751,0,30.208c5.46,9.458,15.24,15.104,26.162,15.104h391.398c10.921,0,20.701-5.646,26.162-15.104
	c5.46-9.458,5.46-20.751,0-30.208l-195.7-338.962C276.701,61.958,266.92,56.312,256.001,56.312z"/>
<path style="fill:#FFEA84;" d="M477.861,410.378l-195.7-338.962c-5.46-9.458-15.24-15.104-26.161-15.104v399.377h195.7
	c10.921,0,20.701-5.646,26.162-15.104C483.321,431.127,483.321,419.834,477.861,410.378z"/>
<path style="fill:#FF6849;" d="M270.999,325.994h-29.996V176.012h29.996V325.994z M275.998,375.988
	c0-11.027-8.971-19.998-19.998-19.998s-19.998,8.971-19.998,19.998s8.971,19.998,19.998,19.998
	C267.027,395.985,275.998,387.014,275.998,375.988z"/>
<g>
	<rect x="256" y="176.01" style="fill:#E8130F;" width="14.998" height="149.982"/>
	<path style="fill:#E8130F;" d="M256.001,355.99v39.995c11.027,0,19.998-8.971,19.998-19.998S267.026,355.99,256.001,355.99z"/>
</g>
<g>
</g>
<g>
</g>
<g>
</g>
<g>
</g>
<g>
</g>
<g>
</g>
<g>
</g>
<g>
</g>
<g>
</g>
<g>
</g>
<g>
</g>
<g>
</g>
<g>
</g>
<g>
</g>
<g>
</g>
</svg>
