<?xml version="1.0" encoding="iso-8859-1"?>

<!-- Generator: Adobe Illustrator 19.0.0, SVG Export Plug-In . SVG Version: 6.00 Build 0)  -->
<svg version="1.1" id="Layer_1" xmlns="http://www.w3.org/2000/svg" xmlns:xlink="http://www.w3.org/1999/xlink" x="0px" y="0px"
	 viewBox="0 0 512 512" style="enable-background:new 0 0 512 512;" xml:space="preserve">
<path style="fill:#D94158;" d="M507.499,140.499l-136-136C368.8,1.5,364.9,0,361,0H151c-3.9,0-7.8,1.5-10.499,4.499l-136,136
	C1.5,143.2,0,147.1,0,151v210c0,3.9,1.5,7.8,4.501,10.499l136,136C143.2,510.5,147.1,512,151,512h210c3.9,0,7.8-1.5,10.499-4.501
	l136-136C510.5,368.8,512,364.9,512,361V151C512,147.1,510.5,143.2,507.499,140.499z"/>
<path style="fill:#D94158;" d="M512,151v210c0,3.9-1.5,7.8-4.501,10.499l-136,136C368.8,510.5,364.9,512,361,512H256V0h105
	c3.9,0,7.8,1.5,10.499,4.499l136,136C510.5,143.2,512,147.1,512,151z"/>
<path style="fill:#E0E4EC;" d="M446.499,165.399L346.6,65.498C343.9,62.5,340,61,336.099,61H175.901c-3.9,0-7.8,1.5-10.501,4.499
	L65.501,165.4C62.5,168.1,61,172,61,175.899V336.1c0,3.9,1.5,7.8,4.501,10.499L165.4,446.5c2.7,3,6.6,4.5,10.501,4.5H336.1
	c3.9,0,7.8-1.5,10.501-4.501l99.899-99.901c3-2.698,4.5-6.598,4.5-10.499v-160.2C451,172,449.5,168.1,446.499,165.399z"/>
<path style="fill:#D1D7E3;" d="M451,175.899V336.1c0,3.9-1.5,7.8-4.501,10.499L346.6,446.5c-2.7,3-6.6,4.5-10.501,4.5H256V61h80.099
	c3.9,0,7.8,1.5,10.501,4.499l99.899,99.901C449.5,168.1,451,172,451,175.899z"/>
<path style="fill:#D94158;" d="M329.801,91H182.199L91,182.199v147.599L182.199,421H329.8l91.2-91.201v-147.6L329.801,91z"/>
<polygon style="fill:#D94158;" points="421,182.199 421,329.799 329.801,421 256,421 256,91 329.801,91 "/>
<g>
</g>
<g>
</g>
<g>
</g>
<g>
</g>
<g>
</g>
<g>
</g>
<g>
</g>
<g>
</g>
<g>
</g>
<g>
</g>
<g>
</g>
<g>
</g>
<g>
</g>
<g>
</g>
<g>
</g>
</svg>
